<?xml version="1.0" encoding="UTF-8"?>
<!-- Generator: Adobe Illustrator 21.0.2, SVG Export Plug-In . SVG Version: 6.00 Build 0)  -->
<svg version="1.1" id="Layer_1" xmlns="http://www.w3.org/2000/svg" xmlns:xlink="http://www.w3.org/1999/xlink" x="0px" y="0px" width="210px" height="172px" viewBox="0 0 210 172" style="enable-background:new 0 0 210 172;" xml:space="preserve">
<style type="text/css">
	.st0{fill:#3C5A99;}
	.st1{fill:#FFFFFF;}
</style>
<path id="Blue_1_" class="st0" d="M181.5,172c5.2,0,9.5-4.3,9.5-9.5V9.5c0-5.2-4.2-9.5-9.5-9.5h-153C23.2,0,19,4.2,19,9.5v153  c0,5.2,4.2,9.5,9.5,9.5H181.5z"/>
<path id="f" class="st1" d="M137.7,172v-66.6H160l3.3-26h-25.7V62.9c0-7.5,2.1-12.6,12.9-12.6l13.7,0V27c-2.4-0.3-10.5-1-20-1  c-19.8,0-33.4,12.1-33.4,34.3v19.1H88.5v26h22.4V172H137.7z"/>
</svg>