<?xml version="1.0" encoding="UTF-8"?>
<!-- Generator: Adobe Illustrator 21.0.2, SVG Export Plug-In . SVG Version: 6.00 Build 0)  -->
<svg version="1.1" id="Layer_1" xmlns="http://www.w3.org/2000/svg" xmlns:xlink="http://www.w3.org/1999/xlink" x="0px" y="0px" width="210px" height="172px" viewBox="0 0 210 172" style="enable-background:new 0 0 210 172;" xml:space="preserve">
<style type="text/css">
	.st0{fill:url(#SVGID_1_);}
	.st1{fill:url(#SVGID_2_);}
	.st2{fill:#FFFFFF;}
</style>
<radialGradient id="SVGID_1_" cx="135.4799" cy="-418.2192" r="85.9838" gradientTransform="matrix(0 -1.982 -1.8439 0 -706.4667 453.7157)" gradientUnits="userSpaceOnUse">
	<stop offset="0" style="stop-color:#FFDD55"/>
	<stop offset="0.1" style="stop-color:#FFDD55"/>
	<stop offset="0.5" style="stop-color:#FF543E"/>
	<stop offset="1" style="stop-color:#C837AB"/>
</radialGradient>
<path class="st0" d="M105,0C69.1,0,58.6,0,56.6,0.2c-7.4,0.6-12,1.8-16.9,4.3c-3.8,1.9-6.9,4.1-9.9,7.2c-5.5,5.7-8.8,12.6-10,20.9  c-0.6,4-0.8,4.8-0.8,25.4c0,6.8,0,15.9,0,27.9c0,35.9,0,46.4,0.2,48.4c0.6,7.2,1.7,11.7,4.1,16.6c4.6,9.4,13.2,16.5,23.5,19.2  c3.5,0.9,7.5,1.4,12.5,1.7c2.1,0.1,23.8,0.2,45.6,0.2s43.4,0,45.5-0.1c5.8-0.3,9.2-0.7,12.9-1.7c10.3-2.7,18.8-9.6,23.5-19.2  c2.3-4.8,3.5-9.5,4.1-16.3c0.1-1.5,0.2-25.1,0.2-48.7c0-23.6-0.1-47.2-0.2-48.7c-0.5-6.9-1.7-11.5-4.1-16.5c-2-4-4.2-7-7.4-10.1  c-5.7-5.4-12.6-8.7-20.9-9.9c-4-0.6-4.8-0.8-25.4-0.8H105z"/>
<radialGradient id="SVGID_2_" cx="201.3406" cy="-309.688" r="85.9838" gradientTransform="matrix(0.1739 0.8687 3.5818 -0.7172 1064.4083 -384.6235)" gradientUnits="userSpaceOnUse">
	<stop offset="0" style="stop-color:#3771C8"/>
	<stop offset="0.128" style="stop-color:#3771C8"/>
	<stop offset="1" style="stop-color:#6600FF;stop-opacity:0"/>
</radialGradient>
<path class="st1" d="M105,0C69.1,0,58.6,0,56.6,0.2c-7.4,0.6-12,1.8-16.9,4.3c-3.8,1.9-6.9,4.1-9.9,7.2c-5.5,5.7-8.8,12.6-10,20.9  c-0.6,4-0.8,4.8-0.8,25.4c0,6.8,0,15.9,0,27.9c0,35.9,0,46.4,0.2,48.4c0.6,7.2,1.7,11.7,4.1,16.6c4.6,9.4,13.2,16.5,23.5,19.2  c3.5,0.9,7.5,1.4,12.5,1.7c2.1,0.1,23.8,0.2,45.6,0.2s43.4,0,45.5-0.1c5.8-0.3,9.2-0.7,12.9-1.7c10.3-2.7,18.8-9.6,23.5-19.2  c2.3-4.8,3.5-9.5,4.1-16.3c0.1-1.5,0.2-25.1,0.2-48.7c0-23.6-0.1-47.2-0.2-48.7c-0.5-6.9-1.7-11.5-4.1-16.5c-2-4-4.2-7-7.4-10.1  c-5.7-5.4-12.6-8.7-20.9-9.9c-4-0.6-4.8-0.8-25.4-0.8H105z"/>
<path class="st2" d="M105,22.5c-17.2,0-19.4,0.1-26.2,0.4c-6.8,0.3-11.4,1.4-15.4,2.9c-4.2,1.6-7.7,3.8-11.2,7.3  c-3.5,3.5-5.7,7.1-7.3,11.2c-1.6,4-2.6,8.7-2.9,15.4c-0.3,6.8-0.4,8.9-0.4,26.2s0.1,19.4,0.4,26.2c0.3,6.8,1.4,11.4,2.9,15.4  c1.6,4.2,3.8,7.7,7.3,11.2c3.5,3.5,7.1,5.7,11.2,7.3c4,1.6,8.7,2.6,15.4,2.9c6.8,0.3,8.9,0.4,26.2,0.4c17.2,0,19.4-0.1,26.2-0.4  c6.8-0.3,11.4-1.4,15.4-2.9c4.2-1.6,7.7-3.8,11.2-7.3c3.5-3.5,5.7-7.1,7.3-11.2c1.6-4,2.6-8.7,2.9-15.4c0.3-6.8,0.4-8.9,0.4-26.2  s-0.1-19.4-0.4-26.2c-0.3-6.8-1.4-11.4-2.9-15.4c-1.6-4.2-3.8-7.7-7.3-11.2c-3.5-3.5-7.1-5.7-11.2-7.3c-4-1.6-8.7-2.6-15.4-2.9  C124.4,22.6,122.2,22.5,105,22.5L105,22.5z M99.3,33.9c1.7,0,3.6,0,5.7,0c17,0,19,0.1,25.7,0.4c6.2,0.3,9.6,1.3,11.8,2.2  c3,1.2,5.1,2.5,7.3,4.7c2.2,2.2,3.6,4.3,4.8,7.3c0.9,2.2,1.9,5.6,2.2,11.8C157,67,157,69,157,86s-0.1,19-0.4,25.6  c-0.3,6.2-1.3,9.6-2.2,11.8c-1.2,3-2.5,5.1-4.8,7.3c-2.2,2.2-4.3,3.6-7.3,4.7c-2.2,0.9-5.6,1.9-11.8,2.2c-6.7,0.3-8.7,0.4-25.7,0.4  c-17,0-19-0.1-25.7-0.4c-6.2-0.3-9.6-1.3-11.8-2.2c-3-1.2-5.1-2.5-7.3-4.7s-3.6-4.3-4.8-7.3c-0.9-2.2-1.9-5.6-2.2-11.8  c-0.3-6.7-0.4-8.7-0.4-25.7s0.1-19,0.4-25.6c0.3-6.2,1.3-9.6,2.2-11.8c1.2-3,2.5-5.1,4.8-7.3c2.2-2.2,4.3-3.6,7.3-4.8  c2.2-0.9,5.6-1.9,11.8-2.2C85.2,34,87.5,33.9,99.3,33.9L99.3,33.9z M138.9,44.5c-4.2,0-7.6,3.4-7.6,7.6c0,4.2,3.4,7.6,7.6,7.6  s7.6-3.4,7.6-7.6S143.1,44.5,138.9,44.5L138.9,44.5z M105,53.4C87,53.4,72.4,68,72.4,86S87,118.6,105,118.6  c18,0,32.6-14.6,32.6-32.6S123,53.4,105,53.4L105,53.4z M105,64.8c11.7,0,21.2,9.5,21.2,21.2c0,11.7-9.5,21.2-21.2,21.2  c-11.7,0-21.2-9.5-21.2-21.2C83.8,74.3,93.3,64.8,105,64.8z"/>
</svg>