<?xml version="1.0" encoding="utf-8"?>
<!-- Generator: Adobe Illustrator 16.0.0, SVG Export Plug-In . SVG Version: 6.00 Build 0)  -->
<!DOCTYPE svg PUBLIC "-//W3C//DTD SVG 1.1//EN" "http://www.w3.org/Graphics/SVG/1.1/DTD/svg11.dtd">
<svg version="1.1" id="Layer_1" xmlns="http://www.w3.org/2000/svg" xmlns:xlink="http://www.w3.org/1999/xlink" x="0px" y="0px"
	 width="457px" height="142px" viewBox="0 0 457 142" enable-background="new 0 0 457 142" xml:space="preserve">
<g>
	<path fill="#FFFFFF" d="M337.363,74.368c0,12.874,0.043,25.747-0.035,38.62c-0.016,2.482-0.305,5.006-0.803,7.438
		c-1.151,5.616-4.555,9.426-9.865,11.567c-2.731,1.101-5.577,1.627-8.491,1.856c-4.146,0.33-8.259,0.127-12.341-0.698
		c-7.776-1.572-12.1-6.523-13.653-14.076c-0.42-2.039-0.631-4.156-0.633-6.237c-0.043-25.746-0.048-51.494,0.002-77.24
		c0.004-2.313,0.262-4.662,0.715-6.932c1.375-6.893,5.629-11.271,12.347-13.072c6.414-1.721,12.94-1.758,19.344,0.025
		c6.896,1.922,11.467,6.293,12.801,13.533c0.389,2.107,0.582,4.277,0.592,6.42C337.391,48.503,337.363,61.434,337.363,74.368z
		 M324.32,74.151c0.011,0,0.021,0,0.029,0c0-11.882,0.014-23.764-0.016-35.645c-0.004-1.74-0.07-3.504-0.355-5.215
		c-1.049-6.313-4.475-8.92-10.846-8.443c-3.324,0.25-5.658,1.799-7.023,4.9c-1.229,2.793-1.541,5.705-1.541,8.697
		c0.004,23.822,0,47.645,0.008,71.466c0.002,1.222,0.052,2.447,0.154,3.664c0.193,2.244,0.928,4.315,2.154,6.205
		c1.055,1.627,2.518,2.739,4.383,3.271c2.355,0.666,4.715,0.621,7.057-0.103c1.882-0.58,3.259-1.756,4.162-3.494
		c1.205-2.313,1.826-4.782,1.828-7.387C324.329,99.43,324.32,86.792,324.32,74.151z"/>
	<path fill="#FFFFFF" d="M196.291,74.163c0-12.814-0.032-25.631,0.03-38.445c0.011-2.313,0.234-4.658,0.664-6.93
		c1.35-7.156,5.789-11.525,12.738-13.293c6.199-1.574,12.463-1.531,18.672,0.037c3.027,0.766,5.766,2.172,8.104,4.289
		c3.284,2.977,4.741,6.842,5.286,11.107c0.228,1.785,0.328,3.598,0.33,5.396c0.021,25.572,0.011,51.145,0.019,76.718
		c0,2.814-0.328,5.58-1.071,8.287c-1.24,4.511-3.929,7.854-8.136,9.963c-3.18,1.595-6.573,2.302-10.086,2.564
		c-4.262,0.319-8.483,0.104-12.678-0.8c-7.158-1.545-11.35-6.084-13.04-13.014c-0.546-2.238-0.778-4.604-0.792-6.912
		c-0.072-12.99-0.035-25.979-0.035-38.971C196.294,74.163,196.292,74.163,196.291,74.163z M229.113,74.02
		c0-11.707,0.009-23.416-0.01-35.122c-0.002-1.512-0.09-3.027-0.219-4.533c-0.17-1.996-0.789-3.867-1.746-5.629
		c-0.939-1.73-2.365-2.846-4.225-3.43c-1.871-0.586-3.789-0.605-5.711-0.381c-2.812,0.33-4.881,1.723-6.121,4.316
		c-1.313,2.738-1.801,5.621-1.799,8.637c0.016,24.23,0.002,48.461,0.021,72.691c0.002,1.447,0.093,2.92,0.365,4.338
		c0.524,2.744,1.563,5.303,3.948,6.965c2.896,2.018,6.117,1.996,9.384,1.084c2.901-0.811,4.243-3.066,5.157-5.699
		c0.839-2.406,0.945-4.906,0.947-7.414C229.119,97.902,229.113,85.96,229.113,74.02z"/>
	<path fill="#FFFFFF" d="M376.544,101.982c0,9.717,0,19.133,0,28.654c-4.373,0-8.59,0-12.906,0
		c-0.036-0.604-0.096-1.111-0.096-1.621c-0.004-31.338-0.009-62.678,0.006-94.018c0-2.809,0.424-5.574,1.371-8.23
		c2.067-5.811,6.137-9.545,12.043-11.158c5.949-1.627,11.977-1.674,17.969-0.197c7.48,1.842,11.959,6.684,13.566,14.139
		c0.475,2.203,0.717,4.5,0.725,6.754c0.064,14.68,0.047,29.359,0.025,44.04c-0.006,5.334-1.103,10.424-3.869,15.037
		c-3.56,5.932-8.648,9.739-15.646,10.471c-4.534,0.475-8.809-0.463-12.442-3.459C377.163,102.294,377.005,102.236,376.544,101.982z
		 M376.419,60.309c0,7.979,0.018,15.958-0.021,23.938c-0.006,1.261,0.193,2.443,0.769,3.537c0.646,1.231,1.336,2.451,2.108,3.606
		c3.048,4.547,9.938,4.857,13.607,0.531c1.307-1.541,2.213-3.258,2.787-5.184c0.811-2.723,0.834-5.521,0.838-8.313
		c0.021-13.279,0.014-26.562,0.002-39.841c0-1.279-0.057-2.563-0.152-3.84c-0.161-2.121-0.733-4.148-1.918-5.918
		c-0.633-0.947-1.43-1.881-2.36-2.518c-5.162-3.529-12.213-1.342-14.521,4.434c-0.922,2.311-1.147,4.73-1.145,7.195
		C376.428,45.397,376.419,52.854,376.419,60.309z"/>
	<path fill="#FFFFFF" d="M157.723,69.96c7.781,0,15.272,0,22.883,0c0,3.804,0,7.444,0,11.325c-2.463,0.012-4.943,0.025-7.422,0.033
		c-2.564,0.006-5.127,0.002-7.69,0.002c-2.493,0-4.987,0-7.725,0c-0.016,2.461-0.036,4.766-0.044,7.068
		c-0.008,2.33-0.002,4.662-0.002,6.992c0,2.329,0,4.659,0,6.989c0,2.39,0,4.776,0,7.166c0,2.33,0,4.66,0,6.99
		c0,2.329,0,4.659,0,6.989c0,2.32,0,4.642,0,7.136c-4.371,0.196-8.586,0.045-13.057,0.104c0-0.906,0-1.639,0-2.371
		c0-27.264,0-54.526,0-81.791c0-3.787-0.01-7.572,0.004-11.359c0.008-2.461,0.322-4.889,1.078-7.23
		c1.938-6,5.881-10.127,11.873-12.107c5.836-1.928,11.816-2.068,17.744-0.523c7.861,2.051,12.475,7.369,14.305,15.145
		c0.475,2.021,0.625,4.146,0.683,6.229c0.104,3.779,0.03,7.564,0.03,11.318c-1.275,0.383-10.299,0.484-12.737,0.139
		c0-0.598,0.005-1.227-0.001-1.854c-0.031-3.611-0.039-7.223-0.109-10.834c-0.043-2.188-0.715-4.209-1.68-6.18
		c-2.574-5.262-10.99-6.182-14.755-1.652c-1.848,2.223-2.915,4.746-3.224,7.596c-0.105,0.982-0.146,1.977-0.146,2.965
		c-0.012,9.904-0.007,19.809-0.008,29.711C157.723,68.532,157.723,69.104,157.723,69.96z"/>
	<path fill="#FFFFFF" d="M260.41,29.096c-4.909,0-9.553,0-14.446,0c-0.039-3.82-0.013-7.514-0.017-11.328
		c14.015,0,27.898,0,41.884,0c0,3.725,0,7.375,0,11.242c-1.578,0.188-3.193,0.063-4.798,0.086c-1.571,0.021-3.146,0.006-4.719,0.006
		c-1.617,0-3.231,0-4.996,0c0,33.91,0,67.625,0,101.294c-1.44,0.445-11.153,0.488-12.907,0.07
		C260.41,96.784,260.41,63.067,260.41,29.096z"/>
	<path fill="#FFFFFF" d="M428.432,120.286c7.547,0,14.922,0,22.523,0c0.074,3.502,0.035,6.847,0.029,10.151
		c-1.445,0.392-33.66,0.438-35.394,0.072c0-37.535,0-75.086,0-112.866c2.146,0,4.228,0,6.303,0c2.037,0,4.072,0,6.32,0
		c0.043,0.734,0.119,1.398,0.119,2.064c0.008,6.932,0.006,13.865,0.006,20.797c0,25.805-0.002,51.61,0.004,77.417
		C428.346,118.661,428.396,119.396,428.432,120.286z"/>
	<path fill="#FFFFFF" d="M358.266,123.449c-0.002,5.678-4.742,9.305-10.162,7.768c-0.391-0.11-0.774-0.256-1.143-0.43
		c-3.434-1.643-5.15-6.012-3.957-10.043c1.1-3.717,4.602-5.972,8.482-5.455c4.021,0.533,6.703,3.623,6.774,7.811
		C358.266,123.217,358.266,123.331,358.266,123.449z"/>
</g>
<g>
	<path fill="#FFFFFF" d="M49.324,131.12c12.813-12.813,25.624-25.629,38.437-38.442c-0.02-0.043-0.039-0.088-0.057-0.133
		c-0.194,0-0.387-0.002-0.58,0.002c-8.098,0.063-15.515-2.162-22.122-6.842c-7.983-5.654-13.189-13.275-15.207-22.857
		c-2.48-11.779,0.062-22.508,7.614-31.91c5.605-6.973,12.903-11.36,21.669-13.152c13.434-2.745,26.99,1.846,36.001,12.125
		c5.028,5.734,8.064,12.405,9.03,19.979c1.056,8.278-0.445,16.081-4.503,23.379c-1.272,2.287-2.776,4.42-4.517,6.377
		c-0.858,0.964-1.764,1.887-2.678,2.802c-7.831,7.836-15.669,15.664-23.502,23.495c-8.283,8.281-16.566,16.563-24.843,24.852
		c-0.325,0.325-0.645,0.496-1.123,0.494c-4.313-0.018-8.626-0.01-12.938-0.012c-0.2,0-0.401-0.018-0.6-0.026
		C49.378,131.207,49.351,131.164,49.324,131.12z M59.179,54.786c0.02,15.206,12.324,27.501,27.509,27.493
		c15.179-0.01,27.476-12.335,27.468-27.533c-0.006-15.177-12.334-27.463-27.543-27.452C71.466,27.307,59.159,39.64,59.179,54.786z"
		/>
	<path fill="#FFFFFF" d="M60.059,21.251c-2.884,2.307-5.392,4.884-7.593,7.783c-6.465-2.309-12.914-2.389-19.338-0.01
		c-5.301,1.963-9.585,5.29-12.85,9.903c-6.49,9.173-6.734,21.466-0.602,30.821c3.521,5.368,8.336,9.112,14.434,11.13
		c6.068,2.007,12.138,1.841,18.195-0.298c2.541,3.396,5.502,6.348,8.918,8.895c-0.195,0.211-0.34,0.381-0.498,0.537
		c-13.593,13.597-27.19,27.188-40.776,40.793c-0.353,0.353-0.705,0.486-1.195,0.483c-4.267-0.017-8.535-0.009-12.802-0.011
		c-0.241,0-0.48-0.016-0.89-0.032c6.538-6.538,12.954-12.952,19.369-19.369c6.401-6.401,12.802-12.803,19.324-19.325
		c-9.474,0.1-17.826-2.692-25.022-8.643c-7.188-5.943-11.62-13.563-13.216-22.753c-2.539-14.608,3.711-29.229,16.021-37.63
		C33.68,15.239,48.844,15.303,60.059,21.251z"/>
	<path fill="#FFFFFF" d="M75.559,36.183c6.792,11.446,6.416,26.698-0.13,37.391c-0.189-0.109-0.384-0.213-0.569-0.333
		c-2.701-1.763-4.893-4.024-6.629-6.74c-0.261-0.407-0.289-0.739-0.099-1.187c1.737-4.112,2.35-8.411,2.007-12.845
		c-0.218-2.82-0.876-5.548-1.979-8.16c-0.144-0.341-0.154-0.608,0.056-0.941c1.812-2.867,4.138-5.212,7.013-7.012
		C75.322,36.299,75.427,36.253,75.559,36.183z"/>
</g>
</svg>
