<svg xmlns="http://www.w3.org/2000/svg" width="508" height="168" viewBox="0 0 508.5 168"><style>.a{fill:#FFF;}</style><path d="M387.8 83.6c0 12.9 0 25.7 0 38.6 0 2.5-0.3 5-0.8 7.4 -1.2 5.6-4.6 9.4-9.9 11.6 -2.7 1.1-5.6 1.6-8.5 1.9 -4.1 0.3-8.3 0.1-12.3-0.7 -7.8-1.6-12.1-6.5-13.7-14.1 -0.4-2-0.6-4.2-0.6-6.2 0-25.7 0-51.5 0-77.2 0-2.3 0.3-4.7 0.7-6.9 1.4-6.9 5.6-11.3 12.3-13.1 6.4-1.7 12.9-1.8 19.3 0 6.9 1.9 11.5 6.3 12.8 13.5 0.4 2.1 0.6 4.3 0.6 6.4C387.8 57.8 387.8 70.7 387.8 83.6zM374.7 83.4c0 0 0 0 0 0 0-11.9 0-23.8 0-35.6 0-1.7-0.1-3.5-0.4-5.2 -1-6.3-4.5-8.9-10.8-8.4 -3.3 0.3-5.7 1.8-7 4.9 -1.2 2.8-1.5 5.7-1.5 8.7 0 23.8 0 47.6 0 71.5 0 1.2 0.1 2.4 0.2 3.7 0.2 2.2 0.9 4.3 2.2 6.2 1.1 1.6 2.5 2.7 4.4 3.3 2.4 0.7 4.7 0.6 7.1-0.1 1.9-0.6 3.3-1.8 4.2-3.5 1.2-2.3 1.8-4.8 1.8-7.4C374.7 108.7 374.7 96.1 374.7 83.4z" class="a"/><path d="M246.7 83.4c0-12.8 0-25.6 0-38.4 0-2.3 0.2-4.7 0.7-6.9 1.4-7.2 5.8-11.5 12.7-13.3 6.2-1.6 12.5-1.5 18.7 0 3 0.8 5.8 2.2 8.1 4.3 3.3 3 4.7 6.8 5.3 11.1 0.2 1.8 0.3 3.6 0.3 5.4 0 25.6 0 51.1 0 76.7 0 2.8-0.3 5.6-1.1 8.3 -1.2 4.5-3.9 7.9-8.1 10 -3.2 1.6-6.6 2.3-10.1 2.6 -4.3 0.3-8.5 0.1-12.7-0.8 -7.2-1.5-11.3-6.1-13-13 -0.5-2.2-0.8-4.6-0.8-6.9 -0.1-13 0-26 0-39C246.7 83.4 246.7 83.4 246.7 83.4zM279.5 83.3c0-11.7 0-23.4 0-35.1 0-1.5-0.1-3-0.2-4.5 -0.2-2-0.8-3.9-1.7-5.6 -0.9-1.7-2.4-2.8-4.2-3.4 -1.9-0.6-3.8-0.6-5.7-0.4 -2.8 0.3-4.9 1.7-6.1 4.3 -1.3 2.7-1.8 5.6-1.8 8.6 0 24.2 0 48.5 0 72.7 0 1.4 0.1 2.9 0.4 4.3 0.5 2.7 1.6 5.3 3.9 7 2.9 2 6.1 2 9.4 1.1 2.9-0.8 4.2-3.1 5.2-5.7 0.8-2.4 0.9-4.9 0.9-7.4C279.5 107.2 279.5 95.2 279.5 83.3z" class="a"/><path d="M427 111.2c0 9.7 0 19.1 0 28.7 -4.4 0-8.6 0-12.9 0 0-0.6-0.1-1.1-0.1-1.6 0-31.3 0-62.7 0-94 0-2.8 0.4-5.6 1.4-8.2 2.1-5.8 6.1-9.5 12-11.2 5.9-1.6 12-1.7 18-0.2 7.5 1.8 12 6.7 13.6 14.1 0.5 2.2 0.7 4.5 0.7 6.8 0.1 14.7 0 29.4 0 44 0 5.3-1.1 10.4-3.9 15 -3.6 5.9-8.6 9.7-15.6 10.5 -4.5 0.5-8.8-0.5-12.4-3.5C427.6 111.6 427.4 111.5 427 111.2zM426.8 69.6c0 8 0 16 0 23.9 0 1.3 0.2 2.4 0.8 3.5 0.6 1.2 1.3 2.5 2.1 3.6 3 4.5 9.9 4.9 13.6 0.5 1.3-1.5 2.2-3.3 2.8-5.2 0.8-2.7 0.8-5.5 0.8-8.3 0-13.3 0-26.6 0-39.8 0-1.3-0.1-2.6-0.2-3.8 -0.2-2.1-0.7-4.1-1.9-5.9 -0.6-0.9-1.4-1.9-2.4-2.5 -5.2-3.5-12.2-1.3-14.5 4.4 -0.9 2.3-1.1 4.7-1.1 7.2C426.8 54.7 426.8 62.1 426.8 69.6z" class="a"/><path d="M208.1 79.2c7.8 0 15.3 0 22.9 0 0 3.8 0 7.4 0 11.3 -2.5 0-4.9 0-7.4 0 -2.6 0-5.1 0-7.7 0 -2.5 0-5 0-7.7 0 0 2.5 0 4.8 0 7.1 0 2.3 0 4.7 0 7s0 4.7 0 7c0 2.4 0 4.8 0 7.2 0 2.3 0 4.7 0 7s0 4.7 0 7c0 2.3 0 4.6 0 7.1 -4.4 0.2-8.6 0-13.1 0.1 0-0.9 0-1.6 0-2.4 0-27.3 0-54.5 0-81.8 0-3.8 0-7.6 0-11.4 0-2.5 0.3-4.9 1.1-7.2 1.9-6 5.9-10.1 11.9-12.1 5.8-1.9 11.8-2.1 17.7-0.5 7.9 2.1 12.5 7.4 14.3 15.1 0.5 2 0.6 4.1 0.7 6.2 0.1 3.8 0 7.6 0 11.3 -1.3 0.4-10.3 0.5-12.7 0.1 0-0.6 0-1.2 0-1.9 0-3.6 0-7.2-0.1-10.8 0-2.2-0.7-4.2-1.7-6.2 -2.6-5.3-11-6.2-14.8-1.7 -1.8 2.2-2.9 4.7-3.2 7.6 -0.1 1-0.1 2-0.1 3 0 9.9 0 19.8 0 29.7C208.1 77.8 208.1 78.4 208.1 79.2z" class="a"/><path d="M310.8 38.4c-4.9 0-9.6 0-14.4 0 0-3.8 0-7.5 0-11.3 14 0 27.9 0 41.9 0 0 3.7 0 7.4 0 11.2 -1.6 0.2-3.2 0.1-4.8 0.1 -1.6 0-3.1 0-4.7 0 -1.6 0-3.2 0-5 0 0 33.9 0 67.6 0 101.3 -1.4 0.4-11.2 0.5-12.9 0.1C310.8 106 310.8 72.3 310.8 38.4z" class="a"/><path d="M478.8 129.5c7.5 0 14.9 0 22.5 0 0.1 3.5 0 6.8 0 10.2 -1.4 0.4-33.7 0.4-35.4 0.1 0-37.5 0-75.1 0-112.9 2.1 0 4.2 0 6.3 0 2 0 4.1 0 6.3 0 0 0.7 0.1 1.4 0.1 2.1 0 6.9 0 13.9 0 20.8 0 25.8 0 51.6 0 77.4C478.8 127.9 478.8 128.7 478.8 129.5z" class="a"/><path d="M408.7 132.7c0 5.7-4.7 9.3-10.2 7.8 -0.4-0.1-0.8-0.3-1.1-0.4 -3.4-1.6-5.1-6-4-10 1.1-3.7 4.6-6 8.5-5.5 4 0.5 6.7 3.6 6.8 7.8C408.7 132.5 408.7 132.6 408.7 132.7z" class="a"/><path d="M72.7 159.1c17-17 34-34 51.1-51.1 0-0.1-0.1-0.1-0.1-0.2 -0.3 0-0.5 0-0.8 0 -10.8 0.1-20.6-2.9-29.4-9.1 -10.6-7.5-17.5-17.6-20.2-30.4 -3.3-15.6 0.1-29.9 10.1-42.4 7.4-9.3 17.1-15.1 28.8-17.5 17.8-3.6 35.9 2.5 47.8 16.1 6.7 7.6 10.7 16.5 12 26.5 1.4 11-0.6 21.4-6 31.1 -1.7 3-3.7 5.9-6 8.5 -1.1 1.3-2.3 2.5-3.6 3.7 -10.4 10.4-20.8 20.8-31.2 31.2 -11 11-22 22-33 33 -0.4 0.4-0.9 0.7-1.5 0.7 -5.7 0-11.5 0-17.2 0 -0.3 0-0.5 0-0.8 0C72.8 159.2 72.7 159.1 72.7 159.1zM85.8 57.7c0 20.2 16.4 36.5 36.5 36.5 20.2 0 36.5-16.4 36.5-36.6 0-20.2-16.4-36.5-36.6-36.5C102.1 21.2 85.8 37.6 85.8 57.7z" class="a"/><path d="M86.9 13.1c-3.8 3.1-7.2 6.5-10.1 10.3 -8.6-3.1-17.2-3.2-25.7 0 -7 2.6-12.7 7-17.1 13.2 -8.6 12.2-8.9 28.5-0.8 40.9 4.7 7.1 11.1 12.1 19.2 14.8 8.1 2.7 16.1 2.4 24.2-0.4 3.4 4.5 7.3 8.4 11.8 11.8 -0.3 0.3-0.5 0.5-0.7 0.7 -18.1 18.1-36.1 36.1-54.2 54.2 -0.5 0.5-0.9 0.6-1.6 0.6 -5.7 0-11.3 0-17 0 -0.3 0-0.6 0-1.2 0 8.7-8.7 17.2-17.2 25.7-25.7 8.5-8.5 17-17 25.7-25.7 -12.6 0.1-23.7-3.6-33.2-11.5 -9.5-7.9-15.4-18-17.6-30.2 -3.4-19.4 4.9-38.8 21.3-50C51.9 5.2 72 5.2 86.9 13.1z" class="a"/><path d="M107.5 33c9 15.2 8.5 35.5-0.2 49.7 -0.3-0.1-0.5-0.3-0.8-0.4 -3.6-2.3-6.5-5.3-8.8-9 -0.3-0.5-0.4-1-0.1-1.6 2.3-5.5 3.1-11.2 2.7-17.1 -0.3-3.7-1.2-7.4-2.6-10.8 -0.2-0.5-0.2-0.8 0.1-1.2 2.4-3.8 5.5-6.9 9.3-9.3C107.2 33.1 107.4 33.1 107.5 33z" class="a"/></svg>