<svg xmlns="http://www.w3.org/2000/svg" width="340" height="460" viewBox="0 0 340.5 460.5"><style>.a{fill:#FFF;}</style><path d="M129.8 309.3c32.9-32.9 65.8-65.8 98.7-98.7 0-0.1-0.1-0.2-0.1-0.3 -0.5 0-1 0-1.5 0 -20.8 0.2-39.8-5.5-56.8-17.6 -20.5-14.5-33.9-34.1-39-58.7 -6.4-30.2 0.2-57.8 19.5-81.9C164.9 34.3 183.7 23 206.2 18.4c34.5-7 69.3 4.7 92.4 31.1 12.9 14.7 20.7 31.8 23.2 51.3 2.7 21.3-1.1 41.3-11.6 60 -3.3 5.9-7.1 11.3-11.6 16.4 -2.2 2.5-4.5 4.9-6.9 7.2 -20.1 20.1-40.2 40.2-60.3 60.3 -21.3 21.3-42.5 42.5-63.8 63.8 -0.8 0.8-1.7 1.3-2.9 1.3 -11.1 0-22.1 0-33.2 0 -0.5 0-1 0-1.5-0.1C129.9 309.6 129.9 309.4 129.8 309.3zM155.1 113.4c0.1 39 31.6 70.6 70.6 70.6 39 0 70.5-31.7 70.5-70.7 0-39-31.7-70.5-70.7-70.5C186.6 42.8 155 74.5 155.1 113.4z" class="a"/><path d="M157.3 27.3c-7.4 5.9-13.8 12.5-19.5 20 -16.6-5.9-33.2-6.1-49.6 0 -13.6 5-24.6 13.6-33 25.4 -16.7 23.5-17.3 55.1-1.5 79.1 9 13.8 21.4 23.4 37.1 28.6 15.6 5.2 31.2 4.7 46.7-0.8 6.5 8.7 14.1 16.3 22.9 22.8 -0.5 0.5-0.9 1-1.3 1.4 -34.9 34.9-69.8 69.8-104.7 104.7 -0.9 0.9-1.8 1.2-3.1 1.2 -11 0-21.9 0-32.9 0 -0.6 0-1.2 0-2.3-0.1 16.8-16.8 33.3-33.3 49.7-49.7 16.4-16.4 32.9-32.9 49.6-49.6 -24.3 0.3-45.8-6.9-64.2-22.2 -18.5-15.3-29.8-34.8-33.9-58.4 -6.5-37.5 9.5-75 41.1-96.6C89.6 11.9 128.6 12 157.3 27.3z" class="a"/><path d="M208.9 393.6c0 12.9 0 25.7 0 38.6 0 2.5-0.3 5-0.8 7.4 -1.2 5.6-4.6 9.4-9.9 11.6 -2.7 1.1-5.6 1.6-8.5 1.9 -4.1 0.3-8.3 0.1-12.3-0.7 -7.8-1.6-12.1-6.5-13.7-14.1 -0.4-2-0.6-4.2-0.6-6.2 0-25.7 0-51.5 0-77.2 0-2.3 0.3-4.7 0.7-6.9 1.4-6.9 5.6-11.3 12.3-13.1 6.4-1.7 12.9-1.8 19.3 0 6.9 1.9 11.5 6.3 12.8 13.5 0.4 2.1 0.6 4.3 0.6 6.4C208.9 367.7 208.9 380.6 208.9 393.6zM195.9 393.3c0 0 0 0 0 0 0-11.9 0-23.8 0-35.6 0-1.7-0.1-3.5-0.4-5.2 -1-6.3-4.5-8.9-10.8-8.4 -3.3 0.3-5.7 1.8-7 4.9 -1.2 2.8-1.5 5.7-1.5 8.7 0 23.8 0 47.6 0 71.5 0 1.2 0.1 2.4 0.2 3.7 0.2 2.2 0.9 4.3 2.2 6.2 1.1 1.6 2.5 2.7 4.4 3.3 2.4 0.7 4.7 0.6 7.1-0.1 1.9-0.6 3.3-1.8 4.2-3.5 1.2-2.3 1.8-4.8 1.8-7.4C195.9 418.6 195.9 406 195.9 393.3z" class="a"/><path d="M67.8 393.4c0-12.8 0-25.6 0-38.4 0-2.3 0.2-4.7 0.7-6.9 1.4-7.2 5.8-11.5 12.7-13.3 6.2-1.6 12.5-1.5 18.7 0 3 0.8 5.8 2.2 8.1 4.3 3.3 3 4.7 6.8 5.3 11.1 0.2 1.8 0.3 3.6 0.3 5.4 0 25.6 0 51.1 0 76.7 0 2.8-0.3 5.6-1.1 8.3 -1.2 4.5-3.9 7.9-8.1 10 -3.2 1.6-6.6 2.3-10.1 2.6 -4.3 0.3-8.5 0.1-12.7-0.8 -7.2-1.5-11.3-6.1-13-13 -0.5-2.2-0.8-4.6-0.8-6.9 -0.1-13 0-26 0-39C67.8 393.4 67.8 393.4 67.8 393.4zM100.7 393.2c0-11.7 0-23.4 0-35.1 0-1.5-0.1-3-0.2-4.5 -0.2-2-0.8-3.9-1.7-5.6 -0.9-1.7-2.4-2.8-4.2-3.4 -1.9-0.6-3.8-0.6-5.7-0.4 -2.8 0.3-4.9 1.7-6.1 4.3 -1.3 2.7-1.8 5.6-1.8 8.6 0 24.2 0 48.5 0 72.7 0 1.4 0.1 2.9 0.4 4.3 0.5 2.7 1.6 5.3 3.9 7 2.9 2 6.1 2 9.4 1.1 2.9-0.8 4.2-3.1 5.2-5.7 0.8-2.4 0.9-4.9 0.9-7.4C100.7 417.1 100.7 405.2 100.7 393.2z" class="a"/><path d="M248.1 421.2c0 9.7 0 19.1 0 28.7 -4.4 0-8.6 0-12.9 0 0-0.6-0.1-1.1-0.1-1.6 0-31.3 0-62.7 0-94 0-2.8 0.4-5.6 1.4-8.2 2.1-5.8 6.1-9.5 12-11.2 5.9-1.6 12-1.7 18-0.2 7.5 1.8 12 6.7 13.6 14.1 0.5 2.2 0.7 4.5 0.7 6.8 0.1 14.7 0 29.4 0 44 0 5.3-1.1 10.4-3.9 15 -3.6 5.9-8.6 9.7-15.6 10.5 -4.5 0.5-8.8-0.5-12.4-3.5C248.7 421.5 248.6 421.4 248.1 421.2zM248 379.5c0 8 0 16 0 23.9 0 1.3 0.2 2.4 0.8 3.5 0.6 1.2 1.3 2.5 2.1 3.6 3 4.5 9.9 4.9 13.6 0.5 1.3-1.5 2.2-3.3 2.8-5.2 0.8-2.7 0.8-5.5 0.8-8.3 0-13.3 0-26.6 0-39.8 0-1.3-0.1-2.6-0.2-3.8 -0.2-2.1-0.7-4.1-1.9-5.9 -0.6-0.9-1.4-1.9-2.4-2.5 -5.2-3.5-12.2-1.3-14.5 4.4 -0.9 2.3-1.1 4.7-1.1 7.2C248 364.6 248 372 248 379.5z" class="a"/><path d="M29.3 389.2c7.8 0 15.3 0 22.9 0 0 3.8 0 7.4 0 11.3 -2.5 0-4.9 0-7.4 0 -2.6 0-5.1 0-7.7 0 -2.5 0-5 0-7.7 0 0 2.5 0 4.8 0 7.1 0 2.3 0 4.7 0 7s0 4.7 0 7c0 2.4 0 4.8 0 7.2 0 2.3 0 4.7 0 7s0 4.7 0 7c0 2.3 0 4.6 0 7.1 -4.4 0.2-8.6 0-13.1 0.1 0-0.9 0-1.6 0-2.4 0-27.3 0-54.5 0-81.8 0-3.8 0-7.6 0-11.4 0-2.5 0.3-4.9 1.1-7.2 1.9-6 5.9-10.1 11.9-12.1 5.8-1.9 11.8-2.1 17.7-0.5 7.9 2.1 12.5 7.4 14.3 15.1 0.5 2 0.6 4.1 0.7 6.2 0.1 3.8 0 7.6 0 11.3 -1.3 0.4-10.3 0.5-12.7 0.1 0-0.6 0-1.2 0-1.9 0-3.6 0-7.2-0.1-10.8 0-2.2-0.7-4.2-1.7-6.2 -2.6-5.3-11-6.2-14.8-1.7 -1.8 2.2-2.9 4.7-3.2 7.6 -0.1 1-0.1 2-0.1 3 0 9.9 0 19.8 0 29.7C29.3 387.7 29.3 388.3 29.3 389.2z" class="a"/><path d="M132 348.3c-4.9 0-9.6 0-14.4 0 0-3.8 0-7.5 0-11.3 14 0 27.9 0 41.9 0 0 3.7 0 7.4 0 11.2 -1.6 0.2-3.2 0.1-4.8 0.1 -1.6 0-3.1 0-4.7 0 -1.6 0-3.2 0-5 0 0 33.9 0 67.6 0 101.3 -1.4 0.4-11.2 0.5-12.9 0.1C132 416 132 382.3 132 348.3z" class="a"/><path d="M300 439.5c7.5 0 14.9 0 22.5 0 0.1 3.5 0 6.8 0 10.2 -1.4 0.4-33.7 0.4-35.4 0.1 0-37.5 0-75.1 0-112.9 2.1 0 4.2 0 6.3 0 2 0 4.1 0 6.3 0 0 0.7 0.1 1.4 0.1 2.1 0 6.9 0 13.9 0 20.8 0 25.8 0 51.6 0 77.4C299.9 437.9 300 438.6 300 439.5z" class="a"/><path d="M229.8 442.6c0 5.7-4.7 9.3-10.2 7.8 -0.4-0.1-0.8-0.3-1.1-0.4 -3.4-1.6-5.1-6-4-10 1.1-3.7 4.6-6 8.5-5.5 4 0.5 6.7 3.6 6.8 7.8C229.8 442.4 229.8 442.5 229.8 442.6z" class="a"/><path d="M197.1 65.6c17.4 29.4 16.5 68.5-0.3 96 -0.5-0.3-1-0.5-1.5-0.9 -6.9-4.5-12.6-10.3-17-17.3 -0.7-1-0.7-1.9-0.3-3 4.5-10.6 6-21.6 5.2-33 -0.6-7.2-2.3-14.2-5.1-20.9 -0.4-0.9-0.4-1.6 0.1-2.4 4.7-7.4 10.6-13.4 18-18C196.5 65.9 196.8 65.8 197.1 65.6z" class="a"/></svg>